<svg id="e7zVSNmxibK1" xmlns="http://www.w3.org/2000/svg" xmlns:xlink="http://www.w3.org/1999/xlink" viewBox="0 0 1920 1080" shape-rendering="geometricPrecision" text-rendering="geometricPrecision" project-id="fcc653ef75954e4fad914c9b2a8394d9" export-id="2f69338dd7d5461fad9f3c456b81f315" cached="false"><path d="M1182.750721,843.524975l-15.404054,14.053151v-14.053151c-.181998-1.066583,16.12454-.537499,15.404054,0Z" transform="translate(-121.527744 77.894244)" fill="#c3c3c3" stroke="#3f5787" stroke-width="0"/><rect width="192" height="108" rx="0" ry="0" transform="matrix(.938214 0 0 2.095761 881.085889 695.077031)" fill="#c3c3c3" stroke-width="0"/><rect width="192" height="108" rx="0" ry="0" transform="matrix(.632957 0 0 1.749036 1061.222977 654.629087)" fill="#c3c3c3" stroke-width="0"/><path d="" fill="none" stroke="#3f5787" stroke-width="3.84"/><rect width="192" height="108" rx="0" ry="0" transform="matrix(1.843085 0 0 4.028914 828.878401 265.779798)" fill="#c3c3c3" stroke-width="0"/><rect width="192" height="108" rx="0" ry="0" transform="matrix(1.84589 0 0 3.965136 812.935787 280.895494)" fill="#ddd" stroke="#ccc" stroke-width="0" stroke-opacity="0.2"/><rect width="0.582026" height="42.21398" rx="0" ry="0" transform="translate(1083.633381 304.433666)" fill="#d2dbed" stroke-width="0"/><rect width="192" height="108" rx="0" ry="0" transform="matrix(.938214 0 0 2.095761 865.681835 709.130182)" fill="#ddd" stroke-width="0"/><rect width="192" height="108" rx="0" ry="0" transform="matrix(.632957 0 0 1.749036 1045.818923 668.682238)" fill="#ddd" stroke-width="0"/><path d="M812.935787,280.895494L828.8784,265.779795c.916779.023621,1.276186,14.518045-.000001,15.115698l-15.942613-.000001" transform="translate(.000001 0.000003)" fill="#c3c3c3" stroke="#3f5787" stroke-width="0"/><path d="M1182.750721,843.524975l-15.404054,14.053151v-14.053151c-.126302-1.353197,15.254696-.837318,15.404054,0Z" transform="translate(-.032685 0)" fill="#c3c3c3" stroke="#3f5787" stroke-width="0"/><rect width="373.128881" height="6.86457" rx="0" ry="0" transform="matrix(1.019167 0 0 1 817.80956 247.986438)" fill="#d2dbed" stroke-width="0"/><rect width="591.364323" height="6.86457" rx="0" ry="0" transform="matrix(0 1.019167-1 0 1198.090202 254.879132)" fill="#d2dbed" stroke-width="0"/><path d="M1197.465252,857.578135v35.675832l-3.784669,19.917553-9.381051,14.966254-16.985551,40.802892" transform="translate(-2.807335 0.000003)" fill="none" stroke="#d2dbed" stroke-width="7"/><rect width="60.763872" height="17.103363" rx="0" ry="0" transform="translate(1061.222977 861.73366)" fill="#d2dbed" stroke-width="0"/><rect width="60.763872" height="17.103363" rx="0" ry="0" transform="translate(1061.222977 882.942543)" fill="#d2dbed" stroke-width="0"/><rect width="60.763872" height="17.103363" rx="0" ry="0" transform="translate(1061.222977 904.315856)" fill="#d2dbed" stroke-width="0"/></svg>
